<svg xmlns="http://www.w3.org/2000/svg" width="64" height="64" viewBox="0 0 64 64">
  <defs>
    <linearGradient id="folder-back" x1="0%" y1="0%" x2="0%" y2="100%">
      <stop offset="0%" stop-color="#E2E8F0"/>
      <stop offset="100%" stop-color="#CBD5E1"/>
    </linearGradient>
    <linearGradient id="folder-front" x1="0%" y1="0%" x2="0%" y2="100%">
      <stop offset="0%" stop-color="#FFFFFF"/>
      <stop offset="100%" stop-color="#F1F5F9"/>
    </linearGradient>
    <filter id="shadow" x="-8%" y="-8%" width="116%" height="120%">
      <feDropShadow dx="0" dy="2" stdDeviation="3" flood-color="#000000" flood-opacity="0.35"/>
    </filter>
  </defs>

  <!-- Back Tab -->
  <path d="M 8 16 C 8 13.8 9.8 12 12 12 L 26 12 C 28 12 29.5 13 30.5 14.5 L 34 19 L 52 19 C 54.2 19 56 20.8 56 23 L 56 48 C 56 50.2 54.2 52 52 52 L 12 52 C 9.8 52 8 50.2 8 48 Z" 
        fill="url(#folder-back)" />

  <!-- Sheet -->
  <rect x="13" y="18" width="38" height="24" rx="3" fill="#8BE9FD" opacity="0.30" />

  <!-- Front Pocket -->
  <rect x="6" y="23" width="52" height="30" rx="5" fill="url(#folder-front)" filter="url(#shadow)" />

  <!-- Accent Lip Line (Dracula Cyan) -->
  <path d="M 10 24 L 54 24" stroke="#8BE9FD" stroke-width="1.5" stroke-linecap="round" />

  <!-- Glyph -->
  <g transform="translate(0, 3)">
    
      <rect x="24" y="30" width="16" height="13" rx="2" fill="none" stroke="#50FA7B" stroke-width="1.8" />
      <circle cx="28" cy="34" r="1.5" fill="#50FA7B" />
      <path d="M 25 41 L 30 35 L 34 39 L 36 37 L 39 41" fill="none" stroke="#50FA7B" stroke-width="1.5" stroke-linejoin="round" />
    
  </g>
</svg>